<svg id="visual" viewBox="0 0 4096 2304" width="4096" height="2304" xmlns="http://www.w3.org/2000/svg" xmlns:xlink="http://www.w3.org/1999/xlink" version="1.1"><g stroke-width="1" stroke-linejoin="bevel"><path d="M2111 1081L2176.8 1146L2136 1058Z" fill="#a8256b" stroke="#a8256b"></path><path d="M2176.8 1146L2201.8 948L2136 1058Z" fill="#3b2b5c" stroke="#3b2b5c"></path><path d="M2136 1058L2075 861L2111 1081Z" fill="#832a6e" stroke="#832a6e"></path><path d="M2201.8 948L2075 861L2136 1058Z" fill="#c92260" stroke="#c92260"></path><path d="M1884.2 1180L1949 1275L2111 1081Z" fill="#e42e4e" stroke="#e42e4e"></path><path d="M2111 1081L1949 1275L2176.8 1146Z" fill="#5e2c69" stroke="#5e2c69"></path><path d="M2381.6 1264L2392.6 1228L2176.8 1146Z" fill="#c92260" stroke="#c92260"></path><path d="M2176.8 1146L2392.6 1228L2201.8 948Z" fill="#1d2549" stroke="#1d2549"></path><path d="M2217.8 1405L2381.6 1264L2176.8 1146Z" fill="#1d2549" stroke="#1d2549"></path><path d="M1798.2 1019L1884.2 1180L2111 1081Z" fill="#00101c" stroke="#00101c"></path><path d="M1949 1275L2217.8 1405L2176.8 1146Z" fill="#832a6e" stroke="#832a6e"></path><path d="M2392.6 1228L2412.6 869L2201.8 948Z" fill="#f64734" stroke="#f64734"></path><path d="M2201.8 948L2310.8 746L2075 861Z" fill="#1d2549" stroke="#1d2549"></path><path d="M2023 501L1908.2 848L2075 861Z" fill="#ff6600" stroke="#ff6600"></path><path d="M2075 861L1908.2 848L2111 1081Z" fill="#832a6e" stroke="#832a6e"></path><path d="M1908.2 848L1798.2 1019L2111 1081Z" fill="#ff6600" stroke="#ff6600"></path><path d="M2412.6 869L2310.8 746L2201.8 948Z" fill="#00101c" stroke="#00101c"></path><path d="M1713.4 1382L1908.2 1441L1949 1275Z" fill="#00101c" stroke="#00101c"></path><path d="M1949 1275L2044 1508L2217.8 1405Z" fill="#091c33" stroke="#091c33"></path><path d="M1713.4 1382L1949 1275L1884.2 1180Z" fill="#ff6600" stroke="#ff6600"></path><path d="M1908.2 1441L2044 1508L1949 1275Z" fill="#832a6e" stroke="#832a6e"></path><path d="M2635.4 1247L2634.4 1059L2392.6 1228Z" fill="#3b2b5c" stroke="#3b2b5c"></path><path d="M2392.6 1228L2634.4 1059L2412.6 869Z" fill="#a8256b" stroke="#a8256b"></path><path d="M2412.6 869L2451.6 702L2310.8 746Z" fill="#832a6e" stroke="#832a6e"></path><path d="M2635.4 1247L2392.6 1228L2381.6 1264Z" fill="#a8256b" stroke="#a8256b"></path><path d="M2606.4 838L2451.6 702L2412.6 869Z" fill="#832a6e" stroke="#832a6e"></path><path d="M2310.8 746L2186.8 572L2075 861Z" fill="#a8256b" stroke="#a8256b"></path><path d="M2351.8 1572L2381.6 1264L2217.8 1405Z" fill="#e42e4e" stroke="#e42e4e"></path><path d="M2672.4 1383L2635.4 1247L2381.6 1264Z" fill="#e42e4e" stroke="#e42e4e"></path><path d="M2273.8 1642L2351.8 1572L2217.8 1405Z" fill="#e42e4e" stroke="#e42e4e"></path><path d="M1558.4 1156L1713.4 1382L1884.2 1180Z" fill="#832a6e" stroke="#832a6e"></path><path d="M1908.2 1441L1778.2 1651L2044 1508Z" fill="#3b2b5c" stroke="#3b2b5c"></path><path d="M2634.4 1059L2606.4 838L2412.6 869Z" fill="#832a6e" stroke="#832a6e"></path><path d="M1713.4 1382L1801.2 1492L1908.2 1441Z" fill="#00101c" stroke="#00101c"></path><path d="M2044 1508L2273.8 1642L2217.8 1405Z" fill="#e42e4e" stroke="#e42e4e"></path><path d="M2477.6 648L2186.8 572L2310.8 746Z" fill="#e42e4e" stroke="#e42e4e"></path><path d="M1771.2 586L1737.4 754L1908.2 848Z" fill="#5e2c69" stroke="#5e2c69"></path><path d="M1908.2 848L1737.4 754L1798.2 1019Z" fill="#3b2b5c" stroke="#3b2b5c"></path><path d="M1798.2 1019L1558.4 1156L1884.2 1180Z" fill="#c92260" stroke="#c92260"></path><path d="M2171.8 1831L2273.8 1642L2044 1508Z" fill="#f64734" stroke="#f64734"></path><path d="M2605.4 675L2477.6 648L2451.6 702Z" fill="#00101c" stroke="#00101c"></path><path d="M2451.6 702L2477.6 648L2310.8 746Z" fill="#c92260" stroke="#c92260"></path><path d="M2620.4 1607L2515.6 1530L2422.6 1790Z" fill="#a8256b" stroke="#a8256b"></path><path d="M2351.8 1572L2515.6 1530L2381.6 1264Z" fill="#a8256b" stroke="#a8256b"></path><path d="M1737.4 754L1615.4 909L1798.2 1019Z" fill="#c92260" stroke="#c92260"></path><path d="M2515.6 1530L2672.4 1383L2381.6 1264Z" fill="#c92260" stroke="#c92260"></path><path d="M2868.2 1209L2823.2 1005L2634.4 1059Z" fill="#ff6600" stroke="#ff6600"></path><path d="M1615.4 909L1558.4 1156L1798.2 1019Z" fill="#5e2c69" stroke="#5e2c69"></path><path d="M1419.6 1429L1674.4 1461L1713.4 1382Z" fill="#832a6e" stroke="#832a6e"></path><path d="M1713.4 1382L1674.4 1461L1801.2 1492Z" fill="#e42e4e" stroke="#e42e4e"></path><path d="M1801.2 1492L1778.2 1651L1908.2 1441Z" fill="#832a6e" stroke="#832a6e"></path><path d="M2119 414L2023 501L2186.8 572Z" fill="#3b2b5c" stroke="#3b2b5c"></path><path d="M2186.8 572L2023 501L2075 861Z" fill="#3b2b5c" stroke="#3b2b5c"></path><path d="M2606.4 838L2605.4 675L2451.6 702Z" fill="#f64734" stroke="#f64734"></path><path d="M2320.8 390L2119 414L2186.8 572Z" fill="#c92260" stroke="#c92260"></path><path d="M2910.2 685L2605.4 675L2606.4 838Z" fill="#ff6600" stroke="#ff6600"></path><path d="M2823.2 1005L2606.4 838L2634.4 1059Z" fill="#00101c" stroke="#00101c"></path><path d="M2023 501L1771.2 586L1908.2 848Z" fill="#c92260" stroke="#c92260"></path><path d="M1737.4 754L1585.4 673L1615.4 909Z" fill="#091c33" stroke="#091c33"></path><path d="M1674.4 1461L1778.2 1651L1801.2 1492Z" fill="#091c33" stroke="#091c33"></path><path d="M1454.6 798L1486.6 1044L1615.4 909Z" fill="#ff6600" stroke="#ff6600"></path><path d="M1615.4 909L1486.6 1044L1558.4 1156Z" fill="#c92260" stroke="#c92260"></path><path d="M1383.6 1537L1644.4 1671L1674.4 1461Z" fill="#e42e4e" stroke="#e42e4e"></path><path d="M2868.2 1209L2634.4 1059L2635.4 1247Z" fill="#ff6600" stroke="#ff6600"></path><path d="M2023 501L1899.2 475L1771.2 586Z" fill="#e42e4e" stroke="#e42e4e"></path><path d="M2422.6 1790L2515.6 1530L2351.8 1572Z" fill="#f64734" stroke="#f64734"></path><path d="M2515.6 1530L2620.4 1607L2672.4 1383Z" fill="#f64734" stroke="#f64734"></path><path d="M2672.4 1383L2868.2 1209L2635.4 1247Z" fill="#f64734" stroke="#f64734"></path><path d="M2398.6 437L2186.8 572L2477.6 648Z" fill="#091c33" stroke="#091c33"></path><path d="M2023 501L2119 414L1899.2 475Z" fill="#5e2c69" stroke="#5e2c69"></path><path d="M2727.4 482L2398.6 437L2477.6 648Z" fill="#e42e4e" stroke="#e42e4e"></path><path d="M1630.4 349L1585.4 673L1771.2 586Z" fill="#091c33" stroke="#091c33"></path><path d="M1771.2 586L1585.4 673L1737.4 754Z" fill="#00101c" stroke="#00101c"></path><path d="M2879.2 1410L2868.2 1209L2672.4 1383Z" fill="#3b2b5c" stroke="#3b2b5c"></path><path d="M1988 1814L2171.8 1831L2044 1508Z" fill="#5e2c69" stroke="#5e2c69"></path><path d="M2273.8 1642L2422.6 1790L2351.8 1572Z" fill="#e42e4e" stroke="#e42e4e"></path><path d="M2620.4 1607L2775.2 1484L2672.4 1383Z" fill="#f64734" stroke="#f64734"></path><path d="M1778.2 1651L1988 1814L2044 1508Z" fill="#e42e4e" stroke="#e42e4e"></path><path d="M2398.6 437L2320.8 390L2186.8 572Z" fill="#f64734" stroke="#f64734"></path><path d="M2171.8 1831L2422.6 1790L2273.8 1642Z" fill="#832a6e" stroke="#832a6e"></path><path d="M3005 1426L2879.2 1410L2775.2 1484Z" fill="#5e2c69" stroke="#5e2c69"></path><path d="M1585.4 673L1454.6 798L1615.4 909Z" fill="#00101c" stroke="#00101c"></path><path d="M1674.4 1461L1644.4 1671L1778.2 1651Z" fill="#00101c" stroke="#00101c"></path><path d="M1778.2 1651L1865.2 1956L1988 1814Z" fill="#a8256b" stroke="#a8256b"></path><path d="M1419.6 1429L1713.4 1382L1558.4 1156Z" fill="#832a6e" stroke="#832a6e"></path><path d="M2775.2 1484L2879.2 1410L2672.4 1383Z" fill="#3b2b5c" stroke="#3b2b5c"></path><path d="M2899.2 1798L2775.2 1484L2620.4 1607Z" fill="#1d2549" stroke="#1d2549"></path><path d="M1454.6 798L1356.6 1055L1486.6 1044Z" fill="#091c33" stroke="#091c33"></path><path d="M1486.6 1044L1356.6 1055L1558.4 1156Z" fill="#a8256b" stroke="#a8256b"></path><path d="M1271.8 1128L1419.6 1429L1558.4 1156Z" fill="#00101c" stroke="#00101c"></path><path d="M1988 1814L2124 1931L2171.8 1831Z" fill="#a8256b" stroke="#a8256b"></path><path d="M2171.8 1831L2394.6 1969L2422.6 1790Z" fill="#f64734" stroke="#f64734"></path><path d="M1865.2 1956L2124 1931L1988 1814Z" fill="#1d2549" stroke="#1d2549"></path><path d="M2394.6 1969L2582.4 1822L2422.6 1790Z" fill="#00101c" stroke="#00101c"></path><path d="M2422.6 1790L2582.4 1822L2620.4 1607Z" fill="#00101c" stroke="#00101c"></path><path d="M2894.2 595L2727.4 482L2605.4 675Z" fill="#e42e4e" stroke="#e42e4e"></path><path d="M2605.4 675L2727.4 482L2477.6 648Z" fill="#3b2b5c" stroke="#3b2b5c"></path><path d="M2436.6 145L2171.8 171L2320.8 390Z" fill="#832a6e" stroke="#832a6e"></path><path d="M2910.2 685L2606.4 838L2823.2 1005Z" fill="#3b2b5c" stroke="#3b2b5c"></path><path d="M2981 790L2910.2 685L2823.2 1005Z" fill="#e42e4e" stroke="#e42e4e"></path><path d="M2981 790L2823.2 1005L3052 1020Z" fill="#f64734" stroke="#f64734"></path><path d="M1166.8 872L1271.8 1128L1356.6 1055Z" fill="#3b2b5c" stroke="#3b2b5c"></path><path d="M1356.6 1055L1271.8 1128L1558.4 1156Z" fill="#a8256b" stroke="#a8256b"></path><path d="M3052 1020L2823.2 1005L2868.2 1209Z" fill="#091c33" stroke="#091c33"></path><path d="M1256.8 1357L1383.6 1537L1419.6 1429Z" fill="#091c33" stroke="#091c33"></path><path d="M1419.6 1429L1383.6 1537L1674.4 1461Z" fill="#a8256b" stroke="#a8256b"></path><path d="M1606.4 1916L1865.2 1956L1778.2 1651Z" fill="#ff6600" stroke="#ff6600"></path><path d="M3138 661L2894.2 595L2910.2 685Z" fill="#ff6600" stroke="#ff6600"></path><path d="M2910.2 685L2894.2 595L2605.4 675Z" fill="#a8256b" stroke="#a8256b"></path><path d="M2295.8 2047L2394.6 1969L2171.8 1831Z" fill="#a8256b" stroke="#a8256b"></path><path d="M2119 414L1770.2 289L1899.2 475Z" fill="#a8256b" stroke="#a8256b"></path><path d="M1899.2 475L1770.2 289L1771.2 586Z" fill="#1d2549" stroke="#1d2549"></path><path d="M1585.4 673L1409.6 483L1454.6 798Z" fill="#091c33" stroke="#091c33"></path><path d="M2114 114L1770.2 289L2119 414Z" fill="#00101c" stroke="#00101c"></path><path d="M1606.4 1916L1778.2 1651L1644.4 1671Z" fill="#5e2c69" stroke="#5e2c69"></path><path d="M2124 1931L2295.8 2047L2171.8 1831Z" fill="#a8256b" stroke="#a8256b"></path><path d="M3057 1195L3052 1020L2868.2 1209Z" fill="#3b2b5c" stroke="#3b2b5c"></path><path d="M3005 1426L3057 1195L2868.2 1209Z" fill="#5e2c69" stroke="#5e2c69"></path><path d="M3005 1426L2868.2 1209L2879.2 1410Z" fill="#5e2c69" stroke="#5e2c69"></path><path d="M2899.2 1798L3005 1426L2775.2 1484Z" fill="#c92260" stroke="#c92260"></path><path d="M1770.2 289L1630.4 349L1771.2 586Z" fill="#5e2c69" stroke="#5e2c69"></path><path d="M1454.6 798L1166.8 872L1356.6 1055Z" fill="#3b2b5c" stroke="#3b2b5c"></path><path d="M2436.6 145L2320.8 390L2398.6 437Z" fill="#e42e4e" stroke="#e42e4e"></path><path d="M2320.8 390L2171.8 171L2119 414Z" fill="#f64734" stroke="#f64734"></path><path d="M1271.8 1128L1256.8 1357L1419.6 1429Z" fill="#1d2549" stroke="#1d2549"></path><path d="M1745.2 0L1727.4 266L1770.2 289Z" fill="#ff6600" stroke="#ff6600"></path><path d="M1770.2 289L1727.4 266L1630.4 349Z" fill="#1d2549" stroke="#1d2549"></path><path d="M2064 2171L2295.8 2047L2124 1931Z" fill="#1d2549" stroke="#1d2549"></path><path d="M2394.6 1969L2627.4 2018L2582.4 1822Z" fill="#3b2b5c" stroke="#3b2b5c"></path><path d="M1507.6 294L1409.6 483L1630.4 349Z" fill="#5e2c69" stroke="#5e2c69"></path><path d="M1630.4 349L1409.6 483L1585.4 673Z" fill="#ff6600" stroke="#ff6600"></path><path d="M1313.8 1674L1441.6 1776L1383.6 1537Z" fill="#5e2c69" stroke="#5e2c69"></path><path d="M1383.6 1537L1441.6 1776L1644.4 1671Z" fill="#f64734" stroke="#f64734"></path><path d="M1441.6 1776L1606.4 1916L1644.4 1671Z" fill="#a8256b" stroke="#a8256b"></path><path d="M2364.6 2304L2394.6 2083L2295.8 2047Z" fill="#3b2b5c" stroke="#3b2b5c"></path><path d="M1256.8 1357L1311.8 1608L1383.6 1537Z" fill="#1d2549" stroke="#1d2549"></path><path d="M2238.8 0L2114 114L2171.8 171Z" fill="#ff6600" stroke="#ff6600"></path><path d="M2171.8 171L2114 114L2119 414Z" fill="#832a6e" stroke="#832a6e"></path><path d="M2755.4 253L2398.6 437L2727.4 482Z" fill="#3b2b5c" stroke="#3b2b5c"></path><path d="M2755.4 253L2436.6 145L2398.6 437Z" fill="#e42e4e" stroke="#e42e4e"></path><path d="M1409.6 483L1227.8 730L1454.6 798Z" fill="#ff6600" stroke="#ff6600"></path><path d="M1271.8 1128L1089 1289L1256.8 1357Z" fill="#091c33" stroke="#091c33"></path><path d="M2295.8 2047L2394.6 2083L2394.6 1969Z" fill="#091c33" stroke="#091c33"></path><path d="M2582.4 1822L2899.2 1798L2620.4 1607Z" fill="#3b2b5c" stroke="#3b2b5c"></path><path d="M2064 2171L2124 1931L1865.2 1956Z" fill="#e42e4e" stroke="#e42e4e"></path><path d="M1227.8 730L1166.8 872L1454.6 798Z" fill="#3b2b5c" stroke="#3b2b5c"></path><path d="M1122 1771L1313.8 1674L1311.8 1608Z" fill="#091c33" stroke="#091c33"></path><path d="M1311.8 1608L1313.8 1674L1383.6 1537Z" fill="#e42e4e" stroke="#e42e4e"></path><path d="M1441.6 1776L1425.6 1899L1606.4 1916Z" fill="#e42e4e" stroke="#e42e4e"></path><path d="M1069 1517L1311.8 1608L1256.8 1357Z" fill="#832a6e" stroke="#832a6e"></path><path d="M2861.2 1956L2899.2 1798L2582.4 1822Z" fill="#f64734" stroke="#f64734"></path><path d="M2394.6 2083L2627.4 2018L2394.6 1969Z" fill="#3b2b5c" stroke="#3b2b5c"></path><path d="M1613.4 0L1507.6 294L1727.4 266Z" fill="#091c33" stroke="#091c33"></path><path d="M1727.4 266L1507.6 294L1630.4 349Z" fill="#a8256b" stroke="#a8256b"></path><path d="M1409.6 483L1282.8 479L1227.8 730Z" fill="#a8256b" stroke="#a8256b"></path><path d="M2918.2 321L2727.4 482L2894.2 595Z" fill="#00101c" stroke="#00101c"></path><path d="M2918.2 321L2755.4 253L2727.4 482Z" fill="#c92260" stroke="#c92260"></path><path d="M2899.2 1798L3119 1509L3005 1426Z" fill="#ff6600" stroke="#ff6600"></path><path d="M3005 1426L3221.8 1436L3057 1195Z" fill="#a8256b" stroke="#a8256b"></path><path d="M3224.8 936L2981 790L3052 1020Z" fill="#832a6e" stroke="#832a6e"></path><path d="M1745.2 2166L2064 2171L1865.2 1956Z" fill="#091c33" stroke="#091c33"></path><path d="M1507.6 294L1282.8 479L1409.6 483Z" fill="#e42e4e" stroke="#e42e4e"></path><path d="M985 926L990 1082L1166.8 872Z" fill="#00101c" stroke="#00101c"></path><path d="M3279.8 787L3138 661L2981 790Z" fill="#3b2b5c" stroke="#3b2b5c"></path><path d="M2981 790L3138 661L2910.2 685Z" fill="#c92260" stroke="#c92260"></path><path d="M3224.8 936L3052 1020L3057 1195Z" fill="#f64734" stroke="#f64734"></path><path d="M1313.8 1674L1425.6 1899L1441.6 1776Z" fill="#c92260" stroke="#c92260"></path><path d="M1606.4 1916L1722.4 2095L1865.2 1956Z" fill="#832a6e" stroke="#832a6e"></path><path d="M990 1082L1089 1289L1271.8 1128Z" fill="#ff6600" stroke="#ff6600"></path><path d="M1313.8 1674L1294.8 1972L1425.6 1899Z" fill="#1d2549" stroke="#1d2549"></path><path d="M1513.6 2028L1722.4 2095L1606.4 1916Z" fill="#ff6600" stroke="#ff6600"></path><path d="M3372.8 1200L3224.8 936L3057 1195Z" fill="#3b2b5c" stroke="#3b2b5c"></path><path d="M3029 320L2918.2 321L2894.2 595Z" fill="#ff6600" stroke="#ff6600"></path><path d="M2436.6 145L2238.8 0L2171.8 171Z" fill="#e42e4e" stroke="#e42e4e"></path><path d="M2114 114L1968 0L1770.2 289Z" fill="#832a6e" stroke="#832a6e"></path><path d="M2482.6 0L2238.8 0L2436.6 145Z" fill="#c92260" stroke="#c92260"></path><path d="M2482.6 0L2436.6 145L2603.4 0Z" fill="#1d2549" stroke="#1d2549"></path><path d="M2627.4 2018L2861.2 1956L2582.4 1822Z" fill="#c92260" stroke="#c92260"></path><path d="M2899.2 1798L3156 1781L3119 1509Z" fill="#f64734" stroke="#f64734"></path><path d="M3016 1917L2861.2 1956L2979 2033Z" fill="#a8256b" stroke="#a8256b"></path><path d="M3253.8 1736L3221.8 1436L3119 1509Z" fill="#c92260" stroke="#c92260"></path><path d="M3119 1509L3221.8 1436L3005 1426Z" fill="#a8256b" stroke="#a8256b"></path><path d="M2238.8 0L1968 0L2114 114Z" fill="#3b2b5c" stroke="#3b2b5c"></path><path d="M1425.6 1899L1513.6 2028L1606.4 1916Z" fill="#00101c" stroke="#00101c"></path><path d="M1722.4 2095L1745.2 2166L1865.2 1956Z" fill="#e42e4e" stroke="#e42e4e"></path><path d="M1513.6 2028L1745.2 2166L1722.4 2095Z" fill="#832a6e" stroke="#832a6e"></path><path d="M2603.4 0L2436.6 145L2755.4 253Z" fill="#832a6e" stroke="#832a6e"></path><path d="M1089 1289L1069 1517L1256.8 1357Z" fill="#f64734" stroke="#f64734"></path><path d="M1425.6 1899L1294.8 1972L1513.6 2028Z" fill="#832a6e" stroke="#832a6e"></path><path d="M1052 723L1166.8 872L1227.8 730Z" fill="#e42e4e" stroke="#e42e4e"></path><path d="M1166.8 872L990 1082L1271.8 1128Z" fill="#ff6600" stroke="#ff6600"></path><path d="M1089 1289L893.2 1542L1069 1517Z" fill="#091c33" stroke="#091c33"></path><path d="M1137.8 439L1052 723L1227.8 730Z" fill="#c92260" stroke="#c92260"></path><path d="M3224.8 936L3279.8 787L2981 790Z" fill="#1d2549" stroke="#1d2549"></path><path d="M3138 661L3029 320L2894.2 595Z" fill="#5e2c69" stroke="#5e2c69"></path><path d="M3497.6 1012L3279.8 787L3224.8 936Z" fill="#00101c" stroke="#00101c"></path><path d="M3247.8 500L3029 320L3138 661Z" fill="#ff6600" stroke="#ff6600"></path><path d="M2918.2 321L2929.2 160L2755.4 253Z" fill="#3b2b5c" stroke="#3b2b5c"></path><path d="M1968 0L1745.2 0L1770.2 289Z" fill="#5e2c69" stroke="#5e2c69"></path><path d="M1322.8 155L1137.8 439L1282.8 479Z" fill="#a8256b" stroke="#a8256b"></path><path d="M1052 723L985 926L1166.8 872Z" fill="#091c33" stroke="#091c33"></path><path d="M2796.2 2170L2861.2 1956L2627.4 2018Z" fill="#091c33" stroke="#091c33"></path><path d="M2861.2 1956L3016 1917L2899.2 1798Z" fill="#5e2c69" stroke="#5e2c69"></path><path d="M2846.2 0L2603.4 0L2755.4 253Z" fill="#091c33" stroke="#091c33"></path><path d="M2364.6 2304L2594.4 2211L2394.6 2083Z" fill="#f64734" stroke="#f64734"></path><path d="M2394.6 2083L2594.4 2211L2627.4 2018Z" fill="#ff6600" stroke="#ff6600"></path><path d="M2186.8 2304L2295.8 2047L2064 2171Z" fill="#f64734" stroke="#f64734"></path><path d="M2039 2304L2186.8 2304L2064 2171Z" fill="#1d2549" stroke="#1d2549"></path><path d="M1769.2 2304L2039 2304L2064 2171Z" fill="#1d2549" stroke="#1d2549"></path><path d="M3016 1917L3156 1781L2899.2 1798Z" fill="#ff6600" stroke="#ff6600"></path><path d="M1282.8 479L1137.8 439L1227.8 730Z" fill="#1d2549" stroke="#1d2549"></path><path d="M730.2 705L846.2 996L985 926Z" fill="#f64734" stroke="#f64734"></path><path d="M1322.8 155L1282.8 479L1507.6 294Z" fill="#3b2b5c" stroke="#3b2b5c"></path><path d="M2186.8 2304L2364.6 2304L2295.8 2047Z" fill="#832a6e" stroke="#832a6e"></path><path d="M3029 320L2929.2 160L2918.2 321Z" fill="#5e2c69" stroke="#5e2c69"></path><path d="M1122 1771L1294.8 1972L1313.8 1674Z" fill="#1d2549" stroke="#1d2549"></path><path d="M1693.4 2304L1769.2 2304L1745.2 2166Z" fill="#091c33" stroke="#091c33"></path><path d="M1745.2 2166L1769.2 2304L2064 2171Z" fill="#c92260" stroke="#c92260"></path><path d="M3351.8 1432L3372.8 1200L3221.8 1436Z" fill="#091c33" stroke="#091c33"></path><path d="M3221.8 1436L3372.8 1200L3057 1195Z" fill="#3b2b5c" stroke="#3b2b5c"></path><path d="M1745.2 0L1613.4 0L1727.4 266Z" fill="#f64734" stroke="#f64734"></path><path d="M1069 1517L1122 1771L1311.8 1608Z" fill="#00101c" stroke="#00101c"></path><path d="M1613.4 0L1362.6 151L1507.6 294Z" fill="#ff6600" stroke="#ff6600"></path><path d="M3253.8 1736L3351.8 1432L3221.8 1436Z" fill="#00101c" stroke="#00101c"></path><path d="M3016 1917L3237.8 1965L3156 1781Z" fill="#e42e4e" stroke="#e42e4e"></path><path d="M2796.2 2170L2979 2033L2861.2 1956Z" fill="#c92260" stroke="#c92260"></path><path d="M2660.4 2304L2796.2 2170L2594.4 2211Z" fill="#5e2c69" stroke="#5e2c69"></path><path d="M2594.4 2211L2796.2 2170L2627.4 2018Z" fill="#ff6600" stroke="#ff6600"></path><path d="M3279.8 787L3247.8 500L3138 661Z" fill="#ff6600" stroke="#ff6600"></path><path d="M3029 320L3110 268L2929.2 160Z" fill="#3b2b5c" stroke="#3b2b5c"></path><path d="M3309.8 380L3247.8 500L3475.6 496Z" fill="#ff6600" stroke="#ff6600"></path><path d="M1363.6 0L1322.8 155L1362.6 151Z" fill="#a8256b" stroke="#a8256b"></path><path d="M1362.6 151L1322.8 155L1507.6 294Z" fill="#3b2b5c" stroke="#3b2b5c"></path><path d="M1693.4 2304L1745.2 2166L1513.6 2028Z" fill="#00101c" stroke="#00101c"></path><path d="M3237.8 1965L3253.8 1736L3156 1781Z" fill="#ff6600" stroke="#ff6600"></path><path d="M3156 1781L3253.8 1736L3119 1509Z" fill="#c92260" stroke="#c92260"></path><path d="M3247.8 500L3110 268L3029 320Z" fill="#3b2b5c" stroke="#3b2b5c"></path><path d="M1367.6 2304L1693.4 2304L1513.6 2028Z" fill="#5e2c69" stroke="#5e2c69"></path><path d="M2929.2 160L2846.2 0L2755.4 253Z" fill="#832a6e" stroke="#832a6e"></path><path d="M3164 0L2846.2 0L2929.2 160Z" fill="#832a6e" stroke="#832a6e"></path><path d="M2364.6 2304L2660.4 2304L2594.4 2211Z" fill="#ff6600" stroke="#ff6600"></path><path d="M3301.8 2188L3237.8 1965L2979 2033Z" fill="#091c33" stroke="#091c33"></path><path d="M1066 296L1007 476L1137.8 439Z" fill="#3b2b5c" stroke="#3b2b5c"></path><path d="M1137.8 439L1007 476L1052 723Z" fill="#3b2b5c" stroke="#3b2b5c"></path><path d="M890.2 616L985 926L1052 723Z" fill="#f64734" stroke="#f64734"></path><path d="M985 926L846.2 996L990 1082Z" fill="#832a6e" stroke="#832a6e"></path><path d="M779.2 1364L893.2 1542L1089 1289Z" fill="#1d2549" stroke="#1d2549"></path><path d="M1069 1517L892.2 1678L1122 1771Z" fill="#832a6e" stroke="#832a6e"></path><path d="M779.2 1364L1089 1289L990 1082Z" fill="#091c33" stroke="#091c33"></path><path d="M1079 2167L1296.8 2147L1294.8 1972Z" fill="#832a6e" stroke="#832a6e"></path><path d="M3579.6 1221L3497.6 1012L3372.8 1200Z" fill="#c92260" stroke="#c92260"></path><path d="M3372.8 1200L3497.6 1012L3224.8 936Z" fill="#832a6e" stroke="#832a6e"></path><path d="M3468.6 1406L3372.8 1200L3351.8 1432Z" fill="#c92260" stroke="#c92260"></path><path d="M3504.6 1503L3468.6 1406L3351.8 1432Z" fill="#f64734" stroke="#f64734"></path><path d="M1007 1992L1294.8 1972L1122 1771Z" fill="#091c33" stroke="#091c33"></path><path d="M1294.8 1972L1296.8 2147L1513.6 2028Z" fill="#a8256b" stroke="#a8256b"></path><path d="M1007 476L890.2 616L1052 723Z" fill="#5e2c69" stroke="#5e2c69"></path><path d="M1322.8 155L1066 296L1137.8 439Z" fill="#832a6e" stroke="#832a6e"></path><path d="M752.2 328L690.4 515L890.2 616Z" fill="#ff6600" stroke="#ff6600"></path><path d="M1613.4 0L1363.6 0L1362.6 151Z" fill="#091c33" stroke="#091c33"></path><path d="M1322.8 155L1033 119L1066 296Z" fill="#ff6600" stroke="#ff6600"></path><path d="M3247.8 500L3309.8 380L3110 268Z" fill="#091c33" stroke="#091c33"></path><path d="M3110 268L3164 0L2929.2 160Z" fill="#091c33" stroke="#091c33"></path><path d="M3475.6 496L3247.8 500L3279.8 787Z" fill="#832a6e" stroke="#832a6e"></path><path d="M587.4 1048L784.2 1118L846.2 996Z" fill="#c92260" stroke="#c92260"></path><path d="M846.2 996L784.2 1118L990 1082Z" fill="#f64734" stroke="#f64734"></path><path d="M2979 2033L3237.8 1965L3016 1917Z" fill="#5e2c69" stroke="#5e2c69"></path><path d="M3462.6 1743L3504.6 1503L3351.8 1432Z" fill="#c92260" stroke="#c92260"></path><path d="M2853.2 2304L2979 2033L2796.2 2170Z" fill="#832a6e" stroke="#832a6e"></path><path d="M683.4 1583L892.2 1678L893.2 1542Z" fill="#832a6e" stroke="#832a6e"></path><path d="M893.2 1542L892.2 1678L1069 1517Z" fill="#3b2b5c" stroke="#3b2b5c"></path><path d="M2660.4 2304L2853.2 2304L2796.2 2170Z" fill="#c92260" stroke="#c92260"></path><path d="M784.2 1118L779.2 1364L990 1082Z" fill="#091c33" stroke="#091c33"></path><path d="M3462.6 1743L3351.8 1432L3253.8 1736Z" fill="#1d2549" stroke="#1d2549"></path><path d="M3468.6 1406L3579.6 1221L3372.8 1200Z" fill="#00101c" stroke="#00101c"></path><path d="M3674.4 1368L3579.6 1221L3468.6 1406Z" fill="#1d2549" stroke="#1d2549"></path><path d="M3497.6 1012L3578.6 715L3279.8 787Z" fill="#c92260" stroke="#c92260"></path><path d="M1280.8 2304L1367.6 2304L1296.8 2147Z" fill="#00101c" stroke="#00101c"></path><path d="M1296.8 2147L1367.6 2304L1513.6 2028Z" fill="#832a6e" stroke="#832a6e"></path><path d="M3579.6 1221L3589.4 959L3497.6 1012Z" fill="#5e2c69" stroke="#5e2c69"></path><path d="M702.4 1711L910.2 1846L892.2 1678Z" fill="#3b2b5c" stroke="#3b2b5c"></path><path d="M892.2 1678L910.2 1846L1122 1771Z" fill="#ff6600" stroke="#ff6600"></path><path d="M910.2 1846L1007 1992L1122 1771Z" fill="#091c33" stroke="#091c33"></path><path d="M3578.6 715L3475.6 496L3279.8 787Z" fill="#f64734" stroke="#f64734"></path><path d="M3309.8 380L3358.8 277L3110 268Z" fill="#832a6e" stroke="#832a6e"></path><path d="M3237.8 1965L3462.6 1743L3253.8 1736Z" fill="#ff6600" stroke="#ff6600"></path><path d="M3504.6 1503L3674.4 1368L3468.6 1406Z" fill="#e42e4e" stroke="#e42e4e"></path><path d="M3440.6 331L3358.8 277L3309.8 380Z" fill="#ff6600" stroke="#ff6600"></path><path d="M3589.4 959L3578.6 715L3497.6 1012Z" fill="#3b2b5c" stroke="#3b2b5c"></path><path d="M690.4 515L730.2 705L890.2 616Z" fill="#091c33" stroke="#091c33"></path><path d="M890.2 616L730.2 705L985 926Z" fill="#00101c" stroke="#00101c"></path><path d="M577.4 1261L683.4 1583L779.2 1364Z" fill="#5e2c69" stroke="#5e2c69"></path><path d="M1079 2167L1280.8 2304L1296.8 2147Z" fill="#091c33" stroke="#091c33"></path><path d="M1137.8 0L1033 119L1322.8 155Z" fill="#832a6e" stroke="#832a6e"></path><path d="M752.2 328L890.2 616L1007 476Z" fill="#5e2c69" stroke="#5e2c69"></path><path d="M3358.8 277L3164 0L3110 268Z" fill="#f64734" stroke="#f64734"></path><path d="M2853.2 2304L3051 2304L2979 2033Z" fill="#f64734" stroke="#f64734"></path><path d="M3237.8 1965L3549.6 1995L3462.6 1743Z" fill="#3b2b5c" stroke="#3b2b5c"></path><path d="M1363.6 0L1137.8 0L1322.8 155Z" fill="#3b2b5c" stroke="#3b2b5c"></path><path d="M3475.6 496L3440.6 331L3309.8 380Z" fill="#832a6e" stroke="#832a6e"></path><path d="M3358.8 277L3361.8 0L3164 0Z" fill="#e42e4e" stroke="#e42e4e"></path><path d="M3485.6 244L3440.6 331L3733.4 390Z" fill="#a8256b" stroke="#a8256b"></path><path d="M1007 1992L1079 2167L1294.8 1972Z" fill="#a8256b" stroke="#a8256b"></path><path d="M1041 2304L1079 2167L856.2 2112Z" fill="#3b2b5c" stroke="#3b2b5c"></path><path d="M3589.4 959L3618.4 710L3578.6 715Z" fill="#f64734" stroke="#f64734"></path><path d="M3578.6 715L3618.4 710L3475.6 496Z" fill="#e42e4e" stroke="#e42e4e"></path><path d="M3773.4 603L3618.4 710L3942.2 824Z" fill="#f64734" stroke="#f64734"></path><path d="M3732.4 1570L3674.4 1368L3504.6 1503Z" fill="#3b2b5c" stroke="#3b2b5c"></path><path d="M3579.6 1221L3785.4 1186L3589.4 959Z" fill="#832a6e" stroke="#832a6e"></path><path d="M779.2 1364L683.4 1583L893.2 1542Z" fill="#c92260" stroke="#c92260"></path><path d="M856.2 2112L1079 2167L1007 1992Z" fill="#1d2549" stroke="#1d2549"></path><path d="M577.4 1261L779.2 1364L784.2 1118Z" fill="#3b2b5c" stroke="#3b2b5c"></path><path d="M1137.8 0L1047 0L1033 119Z" fill="#091c33" stroke="#091c33"></path><path d="M752.2 328L1007 476L1066 296Z" fill="#5e2c69" stroke="#5e2c69"></path><path d="M730.2 705L587.4 1048L846.2 996Z" fill="#1d2549" stroke="#1d2549"></path><path d="M590.4 1913L702.4 1711L474.6 1761Z" fill="#ff6600" stroke="#ff6600"></path><path d="M683.4 1583L702.4 1711L892.2 1678Z" fill="#a8256b" stroke="#a8256b"></path><path d="M752.2 328L1066 296L763.2 145Z" fill="#ff6600" stroke="#ff6600"></path><path d="M455.6 965L520.4 1102L587.4 1048Z" fill="#1d2549" stroke="#1d2549"></path><path d="M3051 2304L3301.8 2188L2979 2033Z" fill="#ff6600" stroke="#ff6600"></path><path d="M3462.6 1743L3636.4 1703L3504.6 1503Z" fill="#1d2549" stroke="#1d2549"></path><path d="M3733.4 390L3440.6 331L3475.6 496Z" fill="#f64734" stroke="#f64734"></path><path d="M3440.6 331L3485.6 244L3358.8 277Z" fill="#e42e4e" stroke="#e42e4e"></path><path d="M587.4 1048L577.4 1261L784.2 1118Z" fill="#e42e4e" stroke="#e42e4e"></path><path d="M3700.4 1824L3636.4 1703L3462.6 1743Z" fill="#f64734" stroke="#f64734"></path><path d="M763.2 145L1066 296L1033 119Z" fill="#091c33" stroke="#091c33"></path><path d="M3051 2304L3239.8 2304L3301.8 2188Z" fill="#1d2549" stroke="#1d2549"></path><path d="M3301.8 2188L3549.6 1995L3237.8 1965Z" fill="#3b2b5c" stroke="#3b2b5c"></path><path d="M3845.2 1439L3785.4 1186L3674.4 1368Z" fill="#091c33" stroke="#091c33"></path><path d="M3674.4 1368L3785.4 1186L3579.6 1221Z" fill="#1d2549" stroke="#1d2549"></path><path d="M3750.4 107L3433.6 0L3485.6 244Z" fill="#f64734" stroke="#f64734"></path><path d="M543.4 738L587.4 1048L730.2 705Z" fill="#ff6600" stroke="#ff6600"></path><path d="M587.4 1048L520.4 1102L577.4 1261Z" fill="#ff6600" stroke="#ff6600"></path><path d="M577.4 1261L491.6 1313L683.4 1583Z" fill="#f64734" stroke="#f64734"></path><path d="M3485.6 244L3361.8 0L3358.8 277Z" fill="#f64734" stroke="#f64734"></path><path d="M856.2 2112L1007 1992L910.2 1846Z" fill="#c92260" stroke="#c92260"></path><path d="M1079 2167L1041 2304L1280.8 2304Z" fill="#091c33" stroke="#091c33"></path><path d="M691.4 2082L856.2 2112L910.2 1846Z" fill="#c92260" stroke="#c92260"></path><path d="M3700.4 1824L3732.4 1570L3636.4 1703Z" fill="#1d2549" stroke="#1d2549"></path><path d="M3636.4 1703L3732.4 1570L3504.6 1503Z" fill="#00101c" stroke="#00101c"></path><path d="M690.4 515L543.4 738L730.2 705Z" fill="#a8256b" stroke="#a8256b"></path><path d="M470.6 623L543.4 738L690.4 515Z" fill="#091c33" stroke="#091c33"></path><path d="M3530.6 2163L3549.6 1995L3301.8 2188Z" fill="#00101c" stroke="#00101c"></path><path d="M455.6 965L499.6 1177L520.4 1102Z" fill="#5e2c69" stroke="#5e2c69"></path><path d="M520.4 1102L499.6 1177L577.4 1261Z" fill="#5e2c69" stroke="#5e2c69"></path><path d="M499.6 1177L491.6 1313L577.4 1261Z" fill="#5e2c69" stroke="#5e2c69"></path><path d="M590.4 1913L691.4 2082L910.2 1846Z" fill="#832a6e" stroke="#832a6e"></path><path d="M784.2 0L763.2 145L1033 119Z" fill="#c92260" stroke="#c92260"></path><path d="M752.2 328L535.4 477L690.4 515Z" fill="#091c33" stroke="#091c33"></path><path d="M3773.4 603L3475.6 496L3618.4 710Z" fill="#091c33" stroke="#091c33"></path><path d="M3485.6 244L3433.6 0L3361.8 0Z" fill="#3b2b5c" stroke="#3b2b5c"></path><path d="M3942.2 824L3618.4 710L3589.4 959Z" fill="#c92260" stroke="#c92260"></path><path d="M351.6 737L455.6 965L543.4 738Z" fill="#00101c" stroke="#00101c"></path><path d="M543.4 738L455.6 965L587.4 1048Z" fill="#5e2c69" stroke="#5e2c69"></path><path d="M211.8 1250L345.6 1540L491.6 1313Z" fill="#00101c" stroke="#00101c"></path><path d="M3549.6 1995L3700.4 1824L3462.6 1743Z" fill="#832a6e" stroke="#832a6e"></path><path d="M3732.4 1570L3845.2 1439L3674.4 1368Z" fill="#1d2549" stroke="#1d2549"></path><path d="M3927.2 1752L3845.2 1439L3732.4 1570Z" fill="#091c33" stroke="#091c33"></path><path d="M3785.4 1186L3953.2 1052L3589.4 959Z" fill="#c92260" stroke="#c92260"></path><path d="M3239.8 2304L3392.6 2304L3301.8 2188Z" fill="#ff6600" stroke="#ff6600"></path><path d="M3549.6 1995L3645.4 2026L3700.4 1824Z" fill="#ff6600" stroke="#ff6600"></path><path d="M3773.4 603L3733.4 390L3475.6 496Z" fill="#00101c" stroke="#00101c"></path><path d="M608.4 228L535.4 477L752.2 328Z" fill="#e42e4e" stroke="#e42e4e"></path><path d="M3392.6 2304L3530.6 2163L3301.8 2188Z" fill="#f64734" stroke="#f64734"></path><path d="M535.4 477L470.6 623L690.4 515Z" fill="#091c33" stroke="#091c33"></path><path d="M3530.6 2163L3645.4 2026L3549.6 1995Z" fill="#00101c" stroke="#00101c"></path><path d="M4096 1360L3952.2 1297L4096 1462Z" fill="#e42e4e" stroke="#e42e4e"></path><path d="M763.2 145L608.4 228L752.2 328Z" fill="#f64734" stroke="#f64734"></path><path d="M1047 0L784.2 0L1033 119Z" fill="#5e2c69" stroke="#5e2c69"></path><path d="M590.4 1913L910.2 1846L702.4 1711Z" fill="#f64734" stroke="#f64734"></path><path d="M856.2 2112L818.2 2304L1041 2304Z" fill="#a8256b" stroke="#a8256b"></path><path d="M474.6 1761L702.4 1711L683.4 1583Z" fill="#ff6600" stroke="#ff6600"></path><path d="M639.4 0L608.4 228L763.2 145Z" fill="#1d2549" stroke="#1d2549"></path><path d="M353.6 480L351.6 737L470.6 623Z" fill="#c92260" stroke="#c92260"></path><path d="M691.4 2082L818.2 2304L856.2 2112Z" fill="#3b2b5c" stroke="#3b2b5c"></path><path d="M655.4 2304L818.2 2304L691.4 2082Z" fill="#e42e4e" stroke="#e42e4e"></path><path d="M3952.2 1297L3953.2 1052L3785.4 1186Z" fill="#c92260" stroke="#c92260"></path><path d="M3773.4 603L3931.2 585L3733.4 390Z" fill="#00101c" stroke="#00101c"></path><path d="M345.6 1540L474.6 1761L683.4 1583Z" fill="#091c33" stroke="#091c33"></path><path d="M590.4 1913L496.6 2035L691.4 2082Z" fill="#5e2c69" stroke="#5e2c69"></path><path d="M345.6 1540L683.4 1583L491.6 1313Z" fill="#091c33" stroke="#091c33"></path><path d="M3845.2 1439L3952.2 1297L3785.4 1186Z" fill="#c92260" stroke="#c92260"></path><path d="M3927.2 1752L3732.4 1570L3700.4 1824Z" fill="#e42e4e" stroke="#e42e4e"></path><path d="M3963.2 917L3942.2 824L3589.4 959Z" fill="#1d2549" stroke="#1d2549"></path><path d="M4096 994L3963.2 917L3953.2 1052Z" fill="#1d2549" stroke="#1d2549"></path><path d="M3953.2 1052L3963.2 917L3589.4 959Z" fill="#00101c" stroke="#00101c"></path><path d="M470.6 623L351.6 737L543.4 738Z" fill="#c92260" stroke="#c92260"></path><path d="M211.8 1250L491.6 1313L499.6 1177Z" fill="#091c33" stroke="#091c33"></path><path d="M353.6 480L470.6 623L535.4 477Z" fill="#ff6600" stroke="#ff6600"></path><path d="M4096 812L3931.2 585L3942.2 824Z" fill="#091c33" stroke="#091c33"></path><path d="M3942.2 824L3931.2 585L3773.4 603Z" fill="#091c33" stroke="#091c33"></path><path d="M3733.4 390L3750.4 107L3485.6 244Z" fill="#1d2549" stroke="#1d2549"></path><path d="M211.8 1250L499.6 1177L455.6 965Z" fill="#ff6600" stroke="#ff6600"></path><path d="M784.2 0L639.4 0L763.2 145Z" fill="#00101c" stroke="#00101c"></path><path d="M433.6 251L353.6 480L535.4 477Z" fill="#5e2c69" stroke="#5e2c69"></path><path d="M3918.2 303L3750.4 107L3733.4 390Z" fill="#832a6e" stroke="#832a6e"></path><path d="M3876.2 2148L3848.2 1931L3645.4 2026Z" fill="#c92260" stroke="#c92260"></path><path d="M3645.4 2026L3848.2 1931L3700.4 1824Z" fill="#f64734" stroke="#f64734"></path><path d="M3668.4 2304L3645.4 2026L3530.6 2163Z" fill="#091c33" stroke="#091c33"></path><path d="M3848.2 1931L3927.2 1752L3700.4 1824Z" fill="#c92260" stroke="#c92260"></path><path d="M206.8 813L266.8 887L351.6 737Z" fill="#5e2c69" stroke="#5e2c69"></path><path d="M351.6 737L266.8 887L455.6 965Z" fill="#c92260" stroke="#c92260"></path><path d="M365.6 1829L590.4 1913L474.6 1761Z" fill="#ff6600" stroke="#ff6600"></path><path d="M365.6 1829L496.6 2035L590.4 1913Z" fill="#00101c" stroke="#00101c"></path><path d="M433.6 251L535.4 477L608.4 228Z" fill="#3b2b5c" stroke="#3b2b5c"></path><path d="M639.4 0L433.6 251L608.4 228Z" fill="#a8256b" stroke="#a8256b"></path><path d="M496.6 2035L655.4 2304L691.4 2082Z" fill="#a8256b" stroke="#a8256b"></path><path d="M249.8 1600L365.6 1829L474.6 1761Z" fill="#091c33" stroke="#091c33"></path><path d="M496.6 2035L409.6 2304L655.4 2304Z" fill="#e42e4e" stroke="#e42e4e"></path><path d="M249.8 1600L474.6 1761L345.6 1540Z" fill="#00101c" stroke="#00101c"></path><path d="M3392.6 2304L3668.4 2304L3530.6 2163Z" fill="#091c33" stroke="#091c33"></path><path d="M4096 387L3918.2 303L3931.2 585Z" fill="#a8256b" stroke="#a8256b"></path><path d="M3931.2 585L3918.2 303L3733.4 390Z" fill="#832a6e" stroke="#832a6e"></path><path d="M3846.2 0L3747.4 0L3750.4 107Z" fill="#00101c" stroke="#00101c"></path><path d="M3750.4 107L3747.4 0L3433.6 0Z" fill="#a8256b" stroke="#a8256b"></path><path d="M3952.2 1297L4096 1186L3953.2 1052Z" fill="#e42e4e" stroke="#e42e4e"></path><path d="M3963.2 917L4096 812L3942.2 824Z" fill="#091c33" stroke="#091c33"></path><path d="M4096 1360L4096 1186L3952.2 1297Z" fill="#e42e4e" stroke="#e42e4e"></path><path d="M4096 1186L4096 994L3953.2 1052Z" fill="#e42e4e" stroke="#e42e4e"></path><path d="M266.8 887L211.8 1250L455.6 965Z" fill="#3b2b5c" stroke="#3b2b5c"></path><path d="M4096 1462L3952.2 1297L3845.2 1439Z" fill="#5e2c69" stroke="#5e2c69"></path><path d="M4096 994L4096 812L3963.2 917Z" fill="#a8256b" stroke="#a8256b"></path><path d="M117.8 1418L249.8 1600L345.6 1540Z" fill="#a8256b" stroke="#a8256b"></path><path d="M151.8 670L206.8 813L351.6 737Z" fill="#f64734" stroke="#f64734"></path><path d="M266.8 887L0 1130L211.8 1250Z" fill="#e42e4e" stroke="#e42e4e"></path><path d="M151.8 670L351.6 737L353.6 480Z" fill="#1d2549" stroke="#1d2549"></path><path d="M4096 1744L4096 1462L3927.2 1752Z" fill="#832a6e" stroke="#832a6e"></path><path d="M3927.2 1752L4096 1462L3845.2 1439Z" fill="#3b2b5c" stroke="#3b2b5c"></path><path d="M4096 1744L3927.2 1752L4096 1989Z" fill="#832a6e" stroke="#832a6e"></path><path d="M4096 246L3917.2 157L3918.2 303Z" fill="#ff6600" stroke="#ff6600"></path><path d="M3918.2 303L3917.2 157L3750.4 107Z" fill="#832a6e" stroke="#832a6e"></path><path d="M3668.4 2304L3876.2 2148L3645.4 2026Z" fill="#c92260" stroke="#c92260"></path><path d="M3917.2 157L3846.2 0L3750.4 107Z" fill="#e42e4e" stroke="#e42e4e"></path><path d="M4096 812L4096 523L3931.2 585Z" fill="#832a6e" stroke="#832a6e"></path><path d="M3917.2 157L4096 0L3846.2 0Z" fill="#3b2b5c" stroke="#3b2b5c"></path><path d="M4096 1989L3927.2 1752L3848.2 1931Z" fill="#5e2c69" stroke="#5e2c69"></path><path d="M136.8 465L151.8 670L353.6 480Z" fill="#00101c" stroke="#00101c"></path><path d="M0 1319L117.8 1418L211.8 1250Z" fill="#091c33" stroke="#091c33"></path><path d="M0 1130L266.8 887L0 881Z" fill="#a8256b" stroke="#a8256b"></path><path d="M211.8 1250L117.8 1418L345.6 1540Z" fill="#c92260" stroke="#c92260"></path><path d="M249.8 1600L168.8 1666L365.6 1829Z" fill="#091c33" stroke="#091c33"></path><path d="M117.8 1418L168.8 1666L249.8 1600Z" fill="#091c33" stroke="#091c33"></path><path d="M273.8 2170L409.6 2304L496.6 2035Z" fill="#ff6600" stroke="#ff6600"></path><path d="M4096 523L4096 387L3931.2 585Z" fill="#5e2c69" stroke="#5e2c69"></path><path d="M639.4 0L350.6 0L433.6 251Z" fill="#1d2549" stroke="#1d2549"></path><path d="M433.6 251L136.8 465L353.6 480Z" fill="#c92260" stroke="#c92260"></path><path d="M136.8 159L136.8 465L433.6 251Z" fill="#f64734" stroke="#f64734"></path><path d="M0 881L266.8 887L206.8 813Z" fill="#00101c" stroke="#00101c"></path><path d="M273.8 2170L496.6 2035L365.6 1829Z" fill="#832a6e" stroke="#832a6e"></path><path d="M4096 387L4096 246L3918.2 303Z" fill="#e42e4e" stroke="#e42e4e"></path><path d="M3876.2 2148L4096 1989L3848.2 1931Z" fill="#c92260" stroke="#c92260"></path><path d="M4096 2198L4096 1989L3876.2 2148Z" fill="#e42e4e" stroke="#e42e4e"></path><path d="M117.8 1418L0 1627L168.8 1666Z" fill="#a8256b" stroke="#a8256b"></path><path d="M0 881L206.8 813L0 809Z" fill="#5e2c69" stroke="#5e2c69"></path><path d="M119.8 1995L273.8 2170L365.6 1829Z" fill="#e42e4e" stroke="#e42e4e"></path><path d="M119.8 1995L365.6 1829L168.8 1666Z" fill="#ff6600" stroke="#ff6600"></path><path d="M0 1130L0 1319L211.8 1250Z" fill="#ff6600" stroke="#ff6600"></path><path d="M0 809L206.8 813L151.8 670Z" fill="#c92260" stroke="#c92260"></path><path d="M0 552L0 809L151.8 670Z" fill="#ff6600" stroke="#ff6600"></path><path d="M3668.4 2304L3968.2 2304L3876.2 2148Z" fill="#e42e4e" stroke="#e42e4e"></path><path d="M0 2304L299.8 2304L273.8 2170Z" fill="#5e2c69" stroke="#5e2c69"></path><path d="M273.8 2170L299.8 2304L409.6 2304Z" fill="#c92260" stroke="#c92260"></path><path d="M0 1319L0 1627L117.8 1418Z" fill="#091c33" stroke="#091c33"></path><path d="M0 1818L119.8 1995L168.8 1666Z" fill="#a8256b" stroke="#a8256b"></path><path d="M136.8 465L0 552L151.8 670Z" fill="#e42e4e" stroke="#e42e4e"></path><path d="M0 326L0 552L136.8 465Z" fill="#091c33" stroke="#091c33"></path><path d="M350.6 0L136.8 159L433.6 251Z" fill="#ff6600" stroke="#ff6600"></path><path d="M3968.2 2304L4096 2198L3876.2 2148Z" fill="#c92260" stroke="#c92260"></path><path d="M4096 246L4096 0L3917.2 157Z" fill="#832a6e" stroke="#832a6e"></path><path d="M0 1627L0 1818L168.8 1666Z" fill="#5e2c69" stroke="#5e2c69"></path><path d="M119.8 1995L0 2195L273.8 2170Z" fill="#ff6600" stroke="#ff6600"></path><path d="M3968.2 2304L4096 2304L4096 2198Z" fill="#e42e4e" stroke="#e42e4e"></path><path d="M136.8 159L0 326L136.8 465Z" fill="#3b2b5c" stroke="#3b2b5c"></path><path d="M350.6 0L134.8 0L136.8 159Z" fill="#5e2c69" stroke="#5e2c69"></path><path d="M136.8 159L0 205L0 326Z" fill="#a8256b" stroke="#a8256b"></path><path d="M0 1818L0 1914L119.8 1995Z" fill="#ff6600" stroke="#ff6600"></path><path d="M0 0L0 205L136.8 159Z" fill="#a8256b" stroke="#a8256b"></path><path d="M0 1914L0 2195L119.8 1995Z" fill="#00101c" stroke="#00101c"></path><path d="M134.8 0L0 0L136.8 159Z" fill="#a8256b" stroke="#a8256b"></path><path d="M0 2195L0 2304L273.8 2170Z" fill="#c92260" stroke="#c92260"></path></g></svg>