<svg fill="none" height="20" viewBox="0 0 20 20" width="20" xmlns="http://www.w3.org/2000/svg"><g fill="#212121"><path d="m2.85355 2.14645c-.19526-.19527-.51184-.19527-.7071 0-.19527.19526-.19527.51184 0 .7071l3.49885 3.49884c-1.67486 1.1394-2.9219 2.92145-3.36513 5.04551-.0564.2703.11701.5352.38733.5916s.53518-.117.59159-.3874c.40381-1.93511 1.56458-3.53919 3.10805-4.52788l1.58622 1.58623c-.88039.63566-1.45336 1.67065-1.45336 2.83955 0 1.933 1.567 3.5 3.5 3.5 1.1689 0 2.2039-.573 2.8396-1.4534l4.3068 4.307c.1953.1952.5119.1952.7072 0 .1952-.1953.1952-.5119 0-.7072zm9.26585 10.68005c-.4421.7049-1.226 1.1735-2.1194 1.1735-1.38071 0-2.5-1.1193-2.5-2.5 0-.8934.46863-1.67735 1.17348-2.11943z"/><path d="m10.1235 8.00214 3.3744 3.37436c-.0637-1.83481-1.5396-3.31074-3.3744-3.37436z"/><path d="m10 6c-.56984 0-1.12851.07353-1.66581.21285l-.80306-.80306c.78236-.26648 1.61372-.40979 2.46887-.40979 3.6934 0 6.9425 2.67312 7.7199 6.3979.0564.2703-.117.5351-.3874.5916-.2703.0564-.5351-.117-.5916-.3874-.6835-3.27522-3.5352-5.6021-6.7409-5.6021z"/></g></svg>